HIERARCHY
ROOT Root
{
  OFFSET 0.0 0.0 0.0
  CHANNELS 6 Xposition Yposition Zposition Zrotation Yrotation Xrotation
  JOINT Hips
  {
    OFFSET 0.0 100.0 0.0
    CHANNELS 6 Xposition Yposition Zposition Zrotation Yrotation Xrotation
    JOINT Spine1
    {
      OFFSET 5.003913 -0.037094 -0.013727
      CHANNELS 3 Zrotation Yrotation Xrotation
      JOINT Spine2
      {
        OFFSET 7.125363 -1e-06 0.0
        CHANNELS 3 Zrotation Yrotation Xrotation
        JOINT Chest
        {
          OFFSET 7.594027 1e-06 0.0
          CHANNELS 3 Zrotation Yrotation Xrotation
          JOINT Neck1
          {
            OFFSET 26.313086 -0.460272 -0.181672
            CHANNELS 3 Zrotation Yrotation Xrotation
            JOINT Neck2
            {
              OFFSET 8.045911 0.0 0.0
              CHANNELS 3 Zrotation Yrotation Xrotation
              JOINT Head
              {
                OFFSET 6.432774 0.0 0.0
                CHANNELS 3 Zrotation Yrotation Xrotation
                JOINT HeadEnd
                {
                  OFFSET 16.169773 0.06451 0.00362
                  CHANNELS 3 Zrotation Yrotation Xrotation
                }
                JOINT Jaw
                {
                  OFFSET 0.108741 3.12938 0.002639
                  CHANNELS 3 Zrotation Yrotation Xrotation
                }
                JOINT LeftEye
                {
                  OFFSET 4.45173 8.166359 3.206392
                  CHANNELS 3 Zrotation Yrotation Xrotation
                }
                JOINT RightEye
                {
                  OFFSET 4.436895 8.135758 -3.222429
                  CHANNELS 3 Zrotation Yrotation Xrotation
                }
              }
            }
          }
          JOINT LeftShoulder
          {
            OFFSET 23.218927 5.195579 1.621656
            CHANNELS 3 Zrotation Yrotation Xrotation
            JOINT LeftArm
            {
              OFFSET 15.902118 2e-06 -2e-06
              CHANNELS 3 Zrotation Yrotation Xrotation
              JOINT LeftForeArm
              {
                OFFSET 28.739307 0.0 -1e-06
                CHANNELS 3 Zrotation Yrotation Xrotation
                JOINT LeftHand
                {
                  OFFSET 27.093981 -4e-06 0.0
                  CHANNELS 3 Zrotation Yrotation Xrotation
                  JOINT LeftHandThumb1
                  {
                    OFFSET 2.276781 3.380274 0.83384
                    CHANNELS 3 Zrotation Yrotation Xrotation
                    JOINT LeftHandThumb2
                    {
                      OFFSET 4.705309 -1e-06 -1e-06
                      CHANNELS 3 Zrotation Yrotation Xrotation
                      JOINT LeftHandThumb3
                      {
                        OFFSET 2.798515 0.0 3e-06
                        CHANNELS 3 Zrotation Yrotation Xrotation
                        JOINT LeftHandThumbEnd
                        {
                          OFFSET 3.180793 4e-06 -4e-06
                          CHANNELS 3 Zrotation Yrotation Xrotation
                        }
                      }
                    }
                  }
                  JOINT LeftHandIndex1
                  {
                    OFFSET 3.247786 2.352677 0.137192
                    CHANNELS 3 Zrotation Yrotation Xrotation
                    JOINT LeftHandIndex2
                    {
                      OFFSET 6.367095 1e-06 0.0
                      CHANNELS 3 Zrotation Yrotation Xrotation
                      JOINT LeftHandIndex3
                      {
                        OFFSET 3.662364 0.0 0.0
                        CHANNELS 3 Zrotation Yrotation Xrotation
                        JOINT LeftHandIndex4
                        {
                          OFFSET 2.329242 4e-06 -4e-06
                          CHANNELS 3 Zrotation Yrotation Xrotation
                          JOINT LeftHandIndexEnd
                          {
                            OFFSET 2.767823 1e-06 0.0
                            CHANNELS 3 Zrotation Yrotation Xrotation
                          }
                        }
                      }
                    }
                  }
                  JOINT LeftHandMiddle1
                  {
                    OFFSET 3.163612 0.945023 -0.406112
                    CHANNELS 3 Zrotation Yrotation Xrotation
                    JOINT LeftHandMiddle2
                    {
                      OFFSET 6.276789 3e-06 0.0
                      CHANNELS 3 Zrotation Yrotation Xrotation
                      JOINT LeftHandMiddle3
                      {
                        OFFSET 4.35652 -1e-06 4e-06
                        CHANNELS 3 Zrotation Yrotation Xrotation
                        JOINT LeftHandMiddle4
                        {
                          OFFSET 2.996877 0.0 8e-06
                          CHANNELS 3 Zrotation Yrotation Xrotation
                          JOINT LeftHandMiddleEnd
                          {
                            OFFSET 2.323256 3e-06 -4e-06
                            CHANNELS 3 Zrotation Yrotation Xrotation
                          }
                        }
                      }
                    }
                  }
                  JOINT LeftHandRing1
                  {
                    OFFSET 2.882606 -0.309162 0.107445
                    CHANNELS 3 Zrotation Yrotation Xrotation
                    JOINT LeftHandRing2
                    {
                      OFFSET 6.033198 0.0 4e-06
                      CHANNELS 3 Zrotation Yrotation Xrotation
                      JOINT LeftHandRing3
                      {
                        OFFSET 4.350578 3e-06 0.0
                        CHANNELS 3 Zrotation Yrotation Xrotation
                        JOINT LeftHandRing4
                        {
                          OFFSET 2.651321 2e-06 -7e-06
                          CHANNELS 3 Zrotation Yrotation Xrotation
                          JOINT LeftHandRingEnd
                          {
                            OFFSET 1.937663 1e-06 -4e-06
                            CHANNELS 3 Zrotation Yrotation Xrotation
                          }
                        }
                      }
                    }
                  }
                  JOINT LeftHandPinky1
                  {
                    OFFSET 2.865315 -1.525436 0.575687
                    CHANNELS 3 Zrotation Yrotation Xrotation
                    JOINT LeftHandPinky2
                    {
                      OFFSET 5.54936 1e-06 -8e-06
                      CHANNELS 3 Zrotation Yrotation Xrotation
                      JOINT LeftHandPinky3
                      {
                        OFFSET 3.070974 0.0 -4e-06
                        CHANNELS 3 Zrotation Yrotation Xrotation
                        JOINT LeftHandPinky4
                        {
                          OFFSET 1.549672 1e-06 0.0
                          CHANNELS 3 Zrotation Yrotation Xrotation
                          JOINT LeftHandPinkyEnd
                          {
                            OFFSET 1.952123 0.0 0.0
                            CHANNELS 3 Zrotation Yrotation Xrotation
                          }
                        }
                      }
                    }
                  }
                }
              }
            }
          }
          JOINT RightShoulder
          {
            OFFSET 23.161716 5.296122 -1.380114
            CHANNELS 3 Zrotation Yrotation Xrotation
            JOINT RightArm
            {
              OFFSET -16.027195 -2e-06 1.1e-05
              CHANNELS 3 Zrotation Yrotation Xrotation
              JOINT RightForeArm
              {
                OFFSET -28.736639 4e-06 2e-06
                CHANNELS 3 Zrotation Yrotation Xrotation
                JOINT RightHand
                {
                  OFFSET -27.133619 6e-06 0.0
                  CHANNELS 3 Zrotation Yrotation Xrotation
                  JOINT RightHandThumb1
                  {
                    OFFSET -2.274328 -3.351035 -0.83067
                    CHANNELS 3 Zrotation Yrotation Xrotation
                    JOINT RightHandThumb2
                    {
                      OFFSET -4.703594 -3e-06 2e-06
                      CHANNELS 3 Zrotation Yrotation Xrotation
                      JOINT RightHandThumb3
                      {
                        OFFSET -2.794935 -4e-06 -3e-06
                        CHANNELS 3 Zrotation Yrotation Xrotation
                        JOINT RightHandThumbEnd
                        {
                          OFFSET -3.183852 4e-06 1e-06
                          CHANNELS 3 Zrotation Yrotation Xrotation
                        }
                      }
                    }
                  }
                  JOINT RightHandIndex1
                  {
                    OFFSET -3.253496 -2.33755 -0.127667
                    CHANNELS 3 Zrotation Yrotation Xrotation
                    JOINT RightHandIndex2
                    {
                      OFFSET -6.344434 0.0 0.0
                      CHANNELS 3 Zrotation Yrotation Xrotation
                      JOINT RightHandIndex3
                      {
                        OFFSET -3.654871 0.0 -8e-06
                        CHANNELS 3 Zrotation Yrotation Xrotation
                        JOINT RightHandIndex4
                        {
                          OFFSET -2.327586 -1e-06 0.0
                          CHANNELS 3 Zrotation Yrotation Xrotation
                          JOINT RightHandIndexEnd
                          {
                            OFFSET -2.770001 3e-06 8e-06
                            CHANNELS 3 Zrotation Yrotation Xrotation
                          }
                        }
                      }
                    }
                  }
                  JOINT RightHandMiddle1
                  {
                    OFFSET -3.168223 -0.944764 0.411762
                    CHANNELS 3 Zrotation Yrotation Xrotation
                    JOINT RightHandMiddle2
                    {
                      OFFSET -6.266691 -1e-06 -4e-06
                      CHANNELS 3 Zrotation Yrotation Xrotation
                      JOINT RightHandMiddle3
                      {
                        OFFSET -4.348901 0.0 0.0
                        CHANNELS 3 Zrotation Yrotation Xrotation
                        JOINT RightHandMiddle4
                        {
                          OFFSET -3.00024 2e-06 -4e-06
                          CHANNELS 3 Zrotation Yrotation Xrotation
                          JOINT RightHandMiddleEnd
                          {
                            OFFSET -2.321477 -4e-06 -4e-06
                            CHANNELS 3 Zrotation Yrotation Xrotation
                          }
                        }
                      }
                    }
                  }
                  JOINT RightHandRing1
                  {
                    OFFSET -2.885654 0.293261 -0.119232
                    CHANNELS 3 Zrotation Yrotation Xrotation
                    JOINT RightHandRing2
                    {
                      OFFSET -6.032835 -1e-06 -4e-06
                      CHANNELS 3 Zrotation Yrotation Xrotation
                      JOINT RightHandRing3
                      {
                        OFFSET -4.33881 0.0 -4e-06
                        CHANNELS 3 Zrotation Yrotation Xrotation
                        JOINT RightHandRing4
                        {
                          OFFSET -2.654903 -4e-06 -4e-06
                          CHANNELS 3 Zrotation Yrotation Xrotation
                          JOINT RightHandRingEnd
                          {
                            OFFSET -1.935122 0.0 4e-06
                            CHANNELS 3 Zrotation Yrotation Xrotation
                          }
                        }
                      }
                    }
                  }
                  JOINT RightHandPinky1
                  {
                    OFFSET -2.866241 1.503904 -0.60527
                    CHANNELS 3 Zrotation Yrotation Xrotation
                    JOINT RightHandPinky2
                    {
                      OFFSET -5.553177 -2e-06 0.0
                      CHANNELS 3 Zrotation Yrotation Xrotation
                      JOINT RightHandPinky3
                      {
                        OFFSET -3.062664 -1e-06 -4e-06
                        CHANNELS 3 Zrotation Yrotation Xrotation
                        JOINT RightHandPinky4
                        {
                          OFFSET -1.546529 2e-06 4e-06
                          CHANNELS 3 Zrotation Yrotation Xrotation
                          JOINT RightHandPinkyEnd
                          {
                            OFFSET -1.952341 0.0 -4e-06
                            CHANNELS 3 Zrotation Yrotation Xrotation
                          }
                        }
                      }
                    }
                  }
                }
              }
            }
          }
        }
      }
    }
    JOINT LeftLeg
    {
      OFFSET -8.443107 2.567604 10.043214
      CHANNELS 3 Zrotation Yrotation Xrotation
      JOINT LeftShin
      {
        OFFSET 43.229198 1e-06 -1e-06
        CHANNELS 3 Zrotation Yrotation Xrotation
        JOINT LeftFoot
        {
          OFFSET 42.298611 1e-06 1e-06
          CHANNELS 3 Zrotation Yrotation Xrotation
          JOINT LeftToeBase
          {
            OFFSET 14.165858 1e-06 0.0
            CHANNELS 3 Zrotation Yrotation Xrotation
            JOINT LeftToeEnd
            {
              OFFSET 6.7141 -0.234461 0.0
              CHANNELS 3 Zrotation Yrotation Xrotation
            }
          }
        }
      }
    }
    JOINT RightLeg
    {
      OFFSET -8.303923 2.592729 -10.047278
      CHANNELS 3 Zrotation Yrotation Xrotation
      JOINT RightShin
      {
        OFFSET -43.369682 0.0 1e-06
        CHANNELS 3 Zrotation Yrotation Xrotation
        JOINT RightFoot
        {
          OFFSET -42.260784 4e-06 2e-06
          CHANNELS 3 Zrotation Yrotation Xrotation
          JOINT RightToeBase
          {
            OFFSET -14.222245 -2e-06 -1e-06
            CHANNELS 3 Zrotation Yrotation Xrotation
            JOINT RightToeEnd
            {
              OFFSET -6.660062 0.232574 -2e-06
              CHANNELS 3 Zrotation Yrotation Xrotation
            }
          }
        }
      }
    }
  }
}
MOTION
Frames: 4
Frame Time: 0.03333333333333333
0.0 0.0 0.0 0.0 -0.0 0.0 -14.210698 94.563858 372.647522 90.263962 0.07398 82.413757 -3.827711 2.843343 1.209872 -12.847403 1.7369 4.149308 18.579943 -0.770121 3.12786 14.749291 -11.306017 3.03978 -2.950578 -0.26675 0.633711 -33.577728 -1.302407 -2.016599 7e-06 -0.0 0.0 -0.070753 0.057579 0.066251 -0.063295 -0.035839 0.062331 -0.031726 0.127657 0.072097 -103.570862 -54.56456 121.906723 19.103844 -12.323918 15.848751 56.032513 0.729291 0.013208 4.887849 0.195517 -19.320326 17.636631 -26.322729 52.411179 -19.466663 -14.395597 29.410385 1e-06 -8.774821 -1e-06 15.133731 -17.488876 5.991136 -0.609775 -1.795654 -3.889329 -4.80709 -11.046813 -2.93785 4e-06 -20.976019 -2e-06 -5.019969 -25.03356 -4.03188 5e-06 -0.0 -0.0 -10.634533 -5.686973 -3.565588 10.573275 -17.922951 -3.113899 2e-06 -13.821211 1e-06 -0.501777 -31.181507 -4.027014 -10.301531 -59.120029 6.840035 -13.982714 -7.150198 -2.875044 13.772733 -8.401495 -3.21824 0.347733 -34.211555 0.771654 -0.963027 -17.733372 2.621018 -1e-06 1e-06 0.0 -17.346418 -20.095219 -4.20178 21.757557 -1.638374 3.866428 1e-06 -6.338823 1e-06 -1.697589 -22.591745 -6.194005 -1e-06 -4e-06 -2e-06 114.960922 -79.813606 82.364029 36.436649 -2.956227 3.065271 65.090782 -0.956573 0.198755 2.33811 -1.62897 -10.5453 22.182106 -20.375898 49.933327 -16.701817 -16.743534 28.47654 -3e-06 -12.690603 3e-06 15.942958 -17.939047 2.964521 -0.105919 -1.513854 -4.275882 -5.039041 -5.612872 -2.953556 4e-06 -11.02052 -1e-06 -6.111298 -15.89533 -3.84047 -0.0 -2e-06 -1e-06 -10.283371 -5.680288 -4.341839 11.028296 -11.302404 -2.372635 -1.384268 -14.238579 -6.32012 -0.625438 -26.924187 -3.827601 -4.451035 -49.713776 -3.153751 -13.708527 -7.363473 -3.720938 18.141153 -14.052739 -3.242678 5e-06 -18.78727 -3e-06 -0.429712 -8.456044 2.555504 -0.0 0.0 -0.0 -15.923536 -20.094484 -5.473584 30.419214 -7.190821 1.735925 2e-06 -8.162927 -0.0 -1.861901 -22.861469 -6.167942 -0.0 -3e-06 -1e-06 152.249344 -3.764618 -4.907041 10.998981 0.053405 0.168632 -67.967323 -7.700272 -12.5412 -10.630535 1.658882 2.025149 -0.999999 0.0 -0.0 24.356972 -1.656032 -8.283305 7.78224 -0.051233 0.414543 -83.210876 4.512354 -6.478878 -16.673981 0.9026 1.553589 -1.000002 1e-06 -0.0 
0.0 0.0 0.0 0.0 -0.0 0.0 -13.284482 94.69632 377.293182 92.324211 -0.083888 81.91938 -4.374591 1.842645 1.204956 -13.172158 1.727447 4.442509 18.863129 -1.710737 3.00457 13.934785 -10.848291 2.973282 -3.0207 -0.282183 0.672374 -33.425629 -1.185231 -2.065429 5e-06 -0.0 -0.0 -0.093154 0.073075 0.049132 -0.047057 -0.010768 0.054412 -0.02841 0.13409 0.04659 -105.821129 -54.376289 123.840172 19.080919 -11.241478 16.109058 55.019733 0.559372 0.121497 4.695603 0.613632 -19.923059 17.636625 -26.322733 52.411198 -19.466665 -14.395598 29.410393 -1e-06 -8.774819 -1e-06 15.153606 -17.521803 6.052997 -0.609776 -1.795655 -3.889329 -4.807088 -11.046807 -2.93785 6e-06 -20.976015 -2e-06 -5.019964 -25.033554 -4.031881 5e-06 -0.0 -0.0 -10.634534 -5.686972 -3.56559 10.573276 -17.922951 -3.113901 4e-06 -13.821209 -0.0 -0.501772 -31.181505 -4.027016 -10.21574 -58.986286 6.882154 -13.982712 -7.150199 -2.875045 13.772729 -8.401493 -3.21824 0.347736 -34.211552 0.771655 -0.963029 -17.73337 2.621019 0.0 -0.0 1e-06 -17.346413 -20.095217 -4.201786 21.757555 -1.638377 3.866428 1e-06 -6.338823 0.0 -1.697588 -22.591743 -6.194005 2e-06 -4e-06 -2e-06 107.61969 -80.051178 89.952675 36.083965 -3.462428 3.633599 65.692429 -1.043926 0.209884 2.009926 -0.597865 -10.308784 22.182123 -20.3759 49.933334 -16.701817 -16.743534 28.47654 -4e-06 -12.690603 -1e-06 15.6674 -17.963675 3.119633 -0.10592 -1.513857 -4.275883 -5.039042 -5.612873 -2.953556 6e-06 -11.020523 -1e-06 -6.111297 -15.89533 -3.840473 -1e-06 -1e-06 -1e-06 -10.283374 -5.680289 -4.341839 11.028299 -11.302404 -2.372633 -1.38427 -14.238583 -6.320121 -0.625435 -26.924191 -3.827601 -4.436743 -49.731632 -3.176419 -13.708527 -7.363479 -3.72094 18.141155 -14.052738 -3.242674 5e-06 -18.78727 -1e-06 -0.42971 -8.456043 2.555505 -0.0 -1e-06 0.0 -15.923538 -20.094482 -5.473589 30.419224 -7.190829 1.735927 1e-06 -8.162927 0.0 -1.861902 -22.861467 -6.16794 1e-06 -3e-06 -1e-06 151.774887 -0.912715 -4.204364 15.230499 -0.057147 0.175813 -63.325478 -8.011512 -10.254993 -9.128079 1.61346 2.065989 -1.0 -0.0 -0.0 24.05328 -5.266173 -10.316289 12.098354 -0.200496 0.659722 -79.595222 6.533696 -6.914619 -22.252213 1.000161 1.491276 -1.0 0.0 0.0 
0.0 0.0 0.0 0.0 -0.0 0.0 -12.399384 95.051102 382.070892 93.91124 0.474821 81.799057 -4.384635 1.297055 1.091808 -13.198576 1.640233 4.606883 18.890799 -2.730206 2.865242 13.76876 -10.072193 2.84704 -2.962874 -0.423432 0.424051 -34.277454 -1.146497 -2.161628 6e-06 0.0 0.0 -0.087603 0.074292 0.032416 -0.013281 0.019653 0.047665 -0.018776 0.107351 0.019082 -105.519119 -55.276257 123.482826 19.639566 -12.279721 15.891586 53.669498 0.357957 0.223087 4.123619 1.007748 -21.048756 17.636627 -26.322733 52.411201 -19.466665 -14.395598 29.410395 -1e-06 -8.774822 -2e-06 15.226253 -17.622965 6.131184 -0.609774 -1.795656 -3.889329 -4.807088 -11.046811 -2.93785 5e-06 -20.976019 -1e-06 -5.01997 -25.03356 -4.031882 6e-06 -2e-06 1e-06 -10.63453 -5.68697 -3.565588 10.573271 -17.922951 -3.1139 1e-06 -13.82121 -0.0 -0.501776 -31.181505 -4.027017 -10.237941 -58.960564 6.902152 -13.982712 -7.150201 -2.875043 13.772731 -8.401493 -3.218241 0.347732 -34.211555 0.771653 -0.963031 -17.733374 2.621022 -0.0 1e-06 0.0 -17.346418 -20.095219 -4.201783 21.757557 -1.638374 3.866426 0.0 -6.338824 -1e-06 -1.69759 -22.591749 -6.194007 1e-06 -4e-06 -3e-06 108.356483 -79.540688 89.037384 35.791031 -6.902297 4.293714 66.052025 -1.013361 -0.077603 1.427869 0.744451 -9.949416 22.182108 -20.375896 49.933319 -16.701811 -16.743532 28.476536 -4e-06 -12.6906 1e-06 15.547826 -18.016495 3.174045 -0.105919 -1.513856 -4.275882 -5.039041 -5.61287 -2.953557 5e-06 -11.02052 -2e-06 -6.111297 -15.89533 -3.840471 -1e-06 -1e-06 0.0 -10.283368 -5.680288 -4.341838 11.028294 -11.302406 -2.372634 -1.38427 -14.238581 -6.320121 -0.625437 -26.924187 -3.827601 -4.446502 -49.725605 -3.264783 -13.708523 -7.363477 -3.720936 18.141146 -14.052741 -3.242674 6e-06 -18.78727 -1e-06 -0.429711 -8.456041 2.555503 -0.0 -1e-06 0.0 -15.923536 -20.094482 -5.473581 30.41921 -7.190826 1.735923 4e-06 -8.162922 0.0 -1.861903 -22.861465 -6.16794 -0.0 -3e-06 -1e-06 152.292313 1.568552 -3.820879 20.20166 -0.115039 0.264578 -63.684574 -8.365323 -8.358676 -7.810614 1.587872 2.094194 -0.999999 -0.0 -0.0 22.784555 -8.673043 -11.168664 19.180182 -0.462524 0.857411 -73.68763 7.68926 -7.117178 -28.72681 1.171546 1.46502 -1.000002 0.0 -0.0 
0.0 0.0 0.0 0.0 -0.0 0.0 -11.602421 95.573517 386.752777 94.754547 1.530833 81.90596 -4.015992 1.086959 0.979806 -13.006064 1.445949 4.414316 18.80405 -3.298272 2.592141 14.021785 -9.221655 2.973347 -2.877985 -0.544277 0.020478 -35.134827 -1.287853 -2.121427 6e-06 -0.0 0.0 -0.047896 0.076815 0.012702 0.033986 0.040904 0.041585 0.02828 0.089316 -0.01866 -103.780228 -56.723198 121.682854 20.266516 -14.791048 15.808658 52.37875 0.502788 0.271819 3.528962 1.390305 -22.324074 17.636631 -26.322729 52.411194 -19.466661 -14.3956 29.410385 -1e-06 -8.774821 -1e-06 15.290956 -17.776243 6.242887 -0.609776 -1.795653 -3.889326 -4.807087 -11.046812 -2.93785 4e-06 -20.976011 -0.0 -5.019968 -25.033552 -4.031882 7e-06 -1e-06 2e-06 -10.634535 -5.686969 -3.565586 10.573277 -17.922947 -3.113901 3e-06 -13.821205 1e-06 -0.501778 -31.181498 -4.027013 -10.437881 -59.21632 6.91382 -13.982714 -7.150195 -2.875041 13.77273 -8.401494 -3.218242 0.347735 -34.211544 0.771652 -0.963029 -17.733366 2.62102 0.0 1e-06 1e-06 -17.346416 -20.095217 -4.201782 21.757557 -1.638375 3.866427 2e-06 -6.338821 -0.0 -1.697588 -22.591738 -6.194005 -1e-06 -5e-06 -2e-06 113.4067 -78.696777 83.550705 35.44194 -11.857875 5.378292 66.098579 -0.62941 -0.119459 0.884865 1.709431 -10.393126 22.18211 -20.375891 49.933319 -16.701811 -16.743528 28.476528 -2e-06 -12.690599 -1e-06 15.623554 -18.213406 3.258788 -0.105919 -1.513856 -4.275882 -5.039041 -5.612875 -2.953554 3e-06 -11.020525 -2e-06 -6.111298 -15.895334 -3.840469 -1e-06 0.0 -1e-06 -10.283368 -5.68029 -4.34184 11.028291 -11.302402 -2.372632 -1.384271 -14.238585 -6.320122 -0.62544 -26.924191 -3.827603 -4.469426 -50.102196 -3.342375 -13.708522 -7.363478 -3.720937 18.141146 -14.052734 -3.242675 7e-06 -18.78727 -5e-06 -0.429713 -8.456043 2.555503 0.0 0.0 0.0 -15.923532 -20.09449 -5.473584 30.419207 -7.190823 1.735925 2e-06 -8.162927 -3e-06 -1.861901 -22.861473 -6.167944 0.0 -2e-06 -0.0 154.492386 3.411976 -3.590837 23.774469 -0.044529 0.30453 -66.280434 -8.841329 -6.2674 -5.995459 1.486622 2.080752 -0.999999 -0.0 0.0 19.897436 -11.547189 -10.289213 28.639305 -0.669809 0.991029 -64.379822 8.459132 -6.982205 -33.947895 1.219216 1.439548 -1.000003 0.0 -0.0 
